<?xml version="1.0"?>
<svg xmlns="http://www.w3.org/2000/svg" xmlns:xlink="http://www.w3.org/1999/xlink" xmlns:svgjs="http://svgjs.com/svgjs" version="1.1" width="512" height="512" x="0" y="0" viewBox="0 0 512 512" style="enable-background:new 0 0 512 512" xml:space="preserve" class=""><g><g xmlns="http://www.w3.org/2000/svg"><g><g><path d="m391.43 165.5h-30c0-8.132-6.861-15-15-15v-30c24.493 0 45 20.507 45 45z" fill="#fffcfc" data-original="#000000" style="" class=""/></g><g><path d="m451.43 165.5h-30c0-40.832-34.184-75-75-75v-30c57.165 0 105 47.819 105 105z" fill="#fffcfc" data-original="#000000" style="" class=""/></g><g><path d="m512 165h-30c0-73.478-61.518-135-135-135v-30c89.815 0 165 75.189 165 165z" fill="#fffcfc" data-original="#000000" style="" class=""/></g></g><g><path d="m225.66 452h-145.54l30.44-46.01c23.781 21.986 60.833 21.787 84.59-.11z" fill="#fffcfc" data-original="#000000" style="" class=""/><path d="m185.63 359.97c0 17.42-15.28 32.7-32.7 32.7-17.73 0-32.72-14.97-32.72-32.7 0-17.772 15.049-32.72 32.79-32.72 17.486 0 32.63 15.267 32.63 32.72z" fill="#fffcfc" data-original="#000000" style="" class=""/><g><path d="m0 482h321.07v30h-321.07z" fill="#fffcfc" data-original="#000000" style="" class=""/></g><path d="m299.345 234.125 42.335-42.335-21.21-21.22-42.34 42.34-125.35-125.35c-47.64 57.48-49.75 141.89-8.59 210.32 18.234-2.605 36.955 3.324 50.58 15.67 15.178 13.736 23.167 34.566 20.25 54.92 68.32 40.81 152.43 38.58 209.74-8.93z" fill="#fffcfc" data-original="#000000" style="" class=""/></g></g></g></svg>
