<?xml version="1.0"?>
<svg xmlns="http://www.w3.org/2000/svg" xmlns:xlink="http://www.w3.org/1999/xlink" xmlns:svgjs="http://svgjs.com/svgjs" version="1.1" width="512" height="512" x="0" y="0" viewBox="0 0 512 512" style="enable-background:new 0 0 512 512" xml:space="preserve" class=""><g><g xmlns="http://www.w3.org/2000/svg"><g><path d="m496.418 181.248h-71.721v-32.325h71.721c4.463 0 8.081 3.618 8.081 8.081v16.163c.001 4.463-3.617 8.081-8.081 8.081z" fill="#f3d202" data-original="#faf0b0" style="" class=""/></g><g><path d="m461.151 148.923h-36.454v32.325h41.079c-.709-10.951-2.266-21.749-4.625-32.325z" fill="#edd74a" data-original="#f8e883" style="" class=""/></g><g><path d="m15.582 181.248h71.721v-32.325h-71.721c-4.463 0-8.081 3.618-8.081 8.081v16.163c-.001 4.463 3.617 8.081 8.081 8.081z" fill="#f3d202" data-original="#faf0b0" style="" class=""/></g><g><path d="m50.849 148.923h36.454v32.325h-41.079c.709-10.951 2.266-21.749 4.625-32.325z" fill="#edd74a" data-original="#f8e883" style="" class=""/></g><g><path d="m482.244 249.453c-4.534-21.402-19.517-38.541-40.263-49.164v-5.214c0-102.479-83.842-187.757-186.321-187.574-102.558.184-185.64 83.38-185.64 185.98v6.807c-20.746 10.623-35.729 27.763-40.263 49.164-6.662 31.45 11.035 63.636 42.4 83.987 7.399 4.801 13.088 11.776 16.23 20.017 30.041 78.784 93.8 151.044 167.613 151.044s137.572-72.26 167.613-151.043c3.143-8.242 8.831-15.216 16.23-20.017 31.365-20.352 49.063-52.537 42.401-83.987z" fill="#cad7cf" data-original="#a2f5c3" style="" class=""/></g><g><path d="m482.244 249.453c-4.534-21.402-19.517-38.541-40.263-49.164v-5.214c0-102.479-83.842-187.757-186.321-187.574-7.177.013-14.254.447-21.218 1.251 92.41 10.812 164.742 91.141 164.742 186.323v.142c0 3.087 1.685 5.899 4.356 7.448 18.478 10.718 31.697 26.916 35.907 46.789 6.661 31.444-11.029 63.623-42.382 83.975-7.295 4.735-13.023 11.543-16.112 19.673-27.049 71.194-81.651 137.136-146.35 149.367 7.022 1.328 14.161 2.032 21.398 2.032 73.813 0 137.572-72.26 167.613-151.043 3.143-8.242 8.831-15.216 16.23-20.017 31.364-20.353 49.062-52.538 42.4-83.988z" fill="#586a5e" data-original="#88f2a9" style="" class=""/></g><g><ellipse cx="378.479" cy="271.434" fill="#df7d14" rx="73.117" ry="50.385" transform="matrix(.978 -.207 .207 .978 -48.035 84.327)" data-original="#407194" style="" class=""/></g><g><ellipse cx="133.521" cy="271.434" fill="#df7d14" rx="50.385" ry="73.117" transform="matrix(.207 -.978 .978 .207 -159.691 345.805)" data-original="#407194" style="" class=""/></g><g><path d="m287.52 363.539c-4.691-6.314-22.46-20.806-31.52-20.521-9.06-.285-26.829 14.207-31.52 20.521-5.324 7.165-3.831 17.289 3.334 22.613s17.289 3.831 22.613-3.334c.016-.021.032-.043.048-.065 2.761-3.753 8.29-3.753 11.05 0 .016.022.032.043.048.065 5.324 7.165 15.448 8.658 22.613 3.334s8.658-15.448 3.334-22.613z" fill="#df7d14" data-original="#407194" style="" class=""/></g><g><path d="m496.419 141.423h-54.484c-3.204-11.097-7.409-21.951-12.633-32.509-1.837-3.713-6.336-5.234-10.048-3.396-3.713 1.837-5.233 6.336-3.396 10.048 12.356 24.972 18.622 51.721 18.622 79.503v5.22c0 2.815 1.577 5.394 4.083 6.676 19.539 10 32.445 25.64 36.34 44.04 5.836 27.517-9.164 56.692-39.145 76.142-8.803 5.711-15.426 13.884-19.155 23.64-15.188 39.83-38.481 76.174-65.592 102.338-29.741 28.704-62.595 43.875-95.011 43.875-21.269 0-42.56-6.414-63.283-19.062-3.534-2.157-8.15-1.041-10.309 2.495-2.158 3.536-1.042 8.151 2.494 10.309 23.112 14.106 47.033 21.258 71.098 21.258 36.379 0 72.835-16.626 105.427-48.081 28.663-27.663 53.235-65.942 69.189-107.781 2.585-6.763 7.186-12.436 13.306-16.406 35.316-22.91 52.81-58.1 45.656-91.835-4.564-21.561-18.733-39.906-40.098-52.078v-.75c0-2.113-.042-4.22-.109-6.322h47.047c8.592 0 15.581-6.99 15.581-15.582v-16.163c.001-8.589-6.989-15.579-15.58-15.579zm.581 31.744c0 .321-.261.582-.581.582h-48.104c-.637-5.828-1.526-11.606-2.686-17.325h50.791c.32 0 .581.261.581.581v16.162z" fill="#000000" data-original="#000000" style=""/><path d="m95.396 350.782c-3.728-9.75-10.351-17.923-19.153-23.634-29.981-19.449-44.981-48.625-39.144-76.144 3.895-18.397 16.8-34.037 36.339-44.037 2.506-1.283 4.083-3.861 4.083-6.676v-6.81c0-47.618 18.527-92.4 52.168-126.099 33.636-33.695 78.378-52.298 125.985-52.382 28.299-.082 55.489 6.537 80.741 19.583 24.043 12.421 45.422 30.54 61.826 52.398 2.486 3.312 7.187 3.982 10.501 1.497 3.312-2.486 3.983-7.187 1.497-10.5-17.753-23.655-40.9-43.269-66.939-56.721-27.304-14.106-56.671-21.257-87.296-21.257-.118 0-.238 0-.357 0-51.606.091-100.11 20.257-136.574 56.784-23.863 23.903-40.707 52.952-49.503 84.639h-53.989c-8.592 0-15.581 6.99-15.581 15.581v16.163c0 8.592 6.989 15.582 15.581 15.582h46.996c-.037 1.574-.057 3.152-.057 4.732v2.339c-21.365 12.171-35.533 30.517-40.097 52.075-7.155 33.738 10.339 68.928 45.655 91.838 6.12 3.97 10.721 9.643 13.304 16.4 17.017 44.633 43.466 84.664 74.476 112.72 1.435 1.299 3.234 1.938 5.029 1.938 2.045 0 4.083-.832 5.563-2.468 2.779-3.072 2.542-7.814-.53-10.593-29.287-26.499-54.333-64.478-70.524-106.948zm-79.815-177.034c-.32 0-.581-.261-.581-.582v-16.163c0-.32.261-.581.581-.581h50.472c-1.102 5.71-1.953 11.489-2.54 17.325h-47.932z" fill="#000000" data-original="#000000" style=""/><path d="m220.104 239.256c1.669 0 3.349-.554 4.741-1.693 3.207-2.622 3.683-7.347 1.061-10.554-17.467-21.37-43.696-36.658-73.854-43.046-4.051-.856-8.034 1.73-8.892 5.783-.858 4.052 1.73 8.033 5.782 8.892 26.829 5.683 50.037 19.13 65.351 37.865 1.481 1.814 3.637 2.753 5.811 2.753z" fill="#000000" data-original="#000000" style=""/><path d="m363.059 198.638c4.052-.858 6.641-4.839 5.782-8.892-.858-4.053-4.845-6.641-8.892-5.783-30.158 6.389-56.388 21.676-73.854 43.046-2.622 3.207-2.146 7.932 1.061 10.554 1.393 1.139 3.072 1.693 4.741 1.693 2.174 0 4.329-.94 5.812-2.753 15.312-18.735 38.52-32.182 65.35-37.865z" fill="#000000" data-original="#000000" style=""/><path d="m332.4 323.926c10.507 4.376 22.468 6.596 34.968 6.596 7.572 0 15.344-.815 23.107-2.459 20.578-4.359 38.836-14.065 51.409-27.33 13.286-14.016 18.776-30.354 15.461-46.006s-14.959-28.361-32.787-35.786c-16.871-7.027-37.495-8.496-58.075-4.137-20.578 4.359-38.836 14.065-51.409 27.33-13.286 14.016-18.777 30.354-15.461 46.006s14.959 28.361 32.787 35.786zm-6.44-71.472c10.503-11.08 25.998-19.239 43.633-22.975 6.764-1.433 13.504-2.143 20.039-2.143 10.501 0 20.473 1.834 29.159 5.452 13.138 5.471 21.618 14.367 23.881 25.047 2.262 10.681-1.884 22.25-11.674 32.578-10.502 11.08-25.997 19.239-43.631 22.974-17.635 3.735-35.108 2.56-49.2-3.309-13.137-5.471-21.617-14.366-23.88-25.047-2.263-10.68 1.883-22.25 11.673-32.577z" fill="#000000" data-original="#000000" style=""/><path d="m212.387 288.145c3.317-15.655-2.172-31.996-15.459-46.012-12.572-13.264-30.832-22.97-51.414-27.33-8.171-1.731-16.401-2.554-24.477-2.442-4.142.057-7.453 3.46-7.396 7.602.056 4.107 3.402 7.398 7.497 7.398h.104c6.946-.105 14.079.618 21.163 2.118 17.638 3.736 33.135 11.895 43.637 22.975 9.79 10.328 13.935 21.899 11.671 32.582-2.264 10.679-10.745 19.573-23.882 25.043-14.093 5.868-31.563 7.041-49.198 3.305-17.635-3.731-33.131-11.889-43.635-22.97-9.79-10.328-13.935-21.897-11.671-32.579 2.076-9.805 9.556-18.248 21.06-23.773 3.733-1.793 5.307-6.274 3.514-10.008-1.795-3.734-6.275-5.309-10.008-3.514-15.794 7.586-26.178 19.727-29.239 34.186-3.318 15.651 2.172 31.991 15.459 46.007 12.575 13.267 30.835 22.971 51.413 27.325 7.767 1.646 15.536 2.461 23.112 2.461 12.495 0 24.456-2.22 34.959-6.593 17.828-7.424 29.472-20.13 32.79-35.781z" fill="#000000" data-original="#000000" style=""/><path d="m293.541 359.066c-5.15-6.932-24.44-23.551-37.318-23.551-.148 0-.295 0-.445 0-12.878 0-32.168 16.62-37.318 23.551-7.78 10.473-5.591 25.324 4.883 33.105 5.073 3.77 11.31 5.337 17.563 4.416 6.01-.886 11.343-3.971 15.095-8.714 3.752 4.743 9.085 7.828 15.095 8.714 1.171.173 2.34.258 3.502.258 5.045 0 9.938-1.61 14.062-4.674 10.472-7.781 12.661-22.632 4.881-33.105zm-13.829 21.065c-1.855 1.379-4.141 1.954-6.429 1.617-2.289-.338-4.31-1.546-5.645-3.342-.008-.011-.063-.087-.071-.098-2.745-3.731-6.961-5.871-11.567-5.871s-8.822 2.14-11.594 5.907c-1.38 1.857-3.4 3.065-5.688 3.403-2.287.336-4.572-.236-6.431-1.617-3.834-2.849-4.636-8.286-1.787-12.12 4.658-6.27 20.114-17.499 25.162-17.499.034 0 .068 0 .102.001.158.005.314.005.473 0 .033-.001.067-.001.102-.001 5.049 0 20.504 11.229 25.162 17.499 2.848 3.835 2.046 9.272-1.789 12.121z" fill="#000000" data-original="#000000" style=""/><path d="m256 433.328c-18.465-8.78-34.745 1.814-35.476 2.302-3.446 2.298-4.404 6.972-2.106 10.418 1.448 2.172 3.823 3.353 6.245 3.353 1.419 0 2.855-.406 4.129-1.255.465-.299 11.528-7.229 23.233.085 2.432 1.521 5.518 1.521 7.949 0 11.646-7.279 22.667-.448 23.226-.089 3.442 2.259 8.067 1.321 10.355-2.11 2.298-3.447 1.366-8.103-2.08-10.401-.731-.489-17.011-11.084-35.475-2.303z" fill="#000000" data-original="#000000" style=""/></g></g></g></svg>
